# xmcd
#
# Track frame offsets:
#	150
#	18558
#	33336
#	50472
#	66837
#	92792
#	104676
#	127159
#	149526
#	169685
#	191518
#
# Disc length: 2867 seconds
#
# Revision: 1
# Processed by: cddbd v1.5.2PL0 Copyright (c) Steve Scherf et al.
# Submitted via: audiograbber 1.83.01
#
DISCID=a10b310b
DTITLE=Jesus Volt - Vaya Con Dildo
DYEAR=2013
DGENRE=Blues
TTITLE0=Give Hate - Get Love
TTITLE1=Have A Cookie
TTITLE2=Sweet Smell Of Summer
TTITLE3=I Just Wanna Get Hurt
TTITLE4=All Aboard
TTITLE5=Kilmister
TTITLE6=Vaya Con Dildo
TTITLE7=Just Another Man
TTITLE8=Riding Upon The Clouds
TTITLE9=Devil Out Of Me
TTITLE10=Even Shadows
EXTD=
EXTT0=
EXTT1=
EXTT2=
EXTT3=
EXTT4=
EXTT5=
EXTT6=
EXTT7=
EXTT8=
EXTT9=
EXTT10=
PLAYORDER=
